<svg width="96" height="96" viewBox="0 0 96 96" fill="none" xmlns="http://www.w3.org/2000/svg">
  <defs>
    <linearGradient id="markGradient" x1="18" y1="10" x2="80" y2="86" gradientUnits="userSpaceOnUse">
      <stop stop-color="#FF3E4D"/>
      <stop offset="0.5" stop-color="#E60023"/>
      <stop offset="1" stop-color="#B3005C"/>
    </linearGradient>
    <radialGradient id="glow" cx="0" cy="0" r="1" gradientUnits="userSpaceOnUse" gradientTransform="translate(48 50) rotate(90) scale(44)">
      <stop stop-color="#FFCAD4" stop-opacity="0.65"/>
      <stop offset="1" stop-color="#FFCAD4" stop-opacity="0"/>
    </radialGradient>
  </defs>
  <circle cx="48" cy="48" r="44" fill="url(#glow)"/>
  <circle cx="48" cy="44" r="34" fill="url(#markGradient)"/>
  <path d="M48 16c-14 0-26 10.3-26 24 0 15.8 17.2 31 23.7 37.6a2.6 2.6 0 0 0 3.6 0C55.8 71 74 55.8 74 40c0-13.7-12-24-26-24zm0 30a6.5 6.5 0 1 1 0-13 6.5 6.5 0 0 1 0 13z" fill="#fff"/>
  <path d="M50.6 67.2 48 72.3l-2.6-5.1c-1.7-3.5-6.1-2.5-6.1-2.5 4.5 5.7 7.6 8.7 8.9 9.9.5.5 1.2.8 1.8.8.7 0 1.3-.3 1.8-.8 1.3-1.2 4.4-4.2 8.9-9.9 0 0-4.4-1-6.1 2.5z" fill="#FFD2DD"/>
  <path d="M67.2 28.5c0-1 .8-1.7 1.8-1.7h2.2c1 0 1.8.7 1.8 1.7v2.2c0 1-.8 1.7-1.8 1.7H69c-1 0-1.8-.7-1.8-1.7v-2.2z" fill="#FFF1F4"/>
  <path d="M28 32.2c0-.8.6-1.4 1.4-1.4h1.8c.8 0 1.4.6 1.4 1.4V34c0 .8-.6 1.4-1.4 1.4h-1.8c-.8 0-1.4-.6-1.4-1.4v-1.8z" fill="#FFF1F4"/>
  <circle cx="62" cy="30" r="2.4" fill="#FFF1F4" opacity="0.7"/>
  <circle cx="34.5" cy="29" r="2" fill="#FFF1F4" opacity="0.7"/>
</svg>
